<svg id="Layer_1" data-name="Layer 1" xmlns="http://www.w3.org/2000/svg" viewBox="0 0 28 20"><defs><style>.cls-1{fill:#111669;}.cls-2{fill:#fff;}.cls-3{fill:#ff5f00;}.cls-4{fill:#eb001b;}.cls-5{fill:#f79e1b;}</style></defs><rect class="cls-1" x="-0.41" y="-0.34" width="28.41" height="20.68"/><path class="cls-2" d="M4.55,18.81V17.29a.89.89,0,0,0-1-1,1,1,0,0,0-.86.43.9.9,0,0,0-.82-.43.82.82,0,0,0-.71.35v-.3H.67v2.43H1.2V17.47a.56.56,0,0,1,.59-.64c.35,0,.53.23.53.64v1.34h.53V17.47a.57.57,0,0,1,.59-.64c.35,0,.53.23.53.64v1.34Zm7.9-2.43h-.86v-.74h-.54v.74h-.48v.48h.48V18c0,.55.23.88.84.88a1.44,1.44,0,0,0,.66-.17l-.15-.46a.85.85,0,0,1-.46.13c-.25,0-.35-.16-.35-.41V16.86h.86v-.48ZM17,16.33a.71.71,0,0,0-.63.35v-.3H15.8v2.43h.54V17.44c0-.4.17-.63.5-.63a1.2,1.2,0,0,1,.33.05l.16-.51a2.23,2.23,0,0,0-.36,0Zm-6.83.25a1.72,1.72,0,0,0-1-.25c-.61,0-1,.3-1,.78s.31.64.84.71l.26,0c.28,0,.43.13.43.25s-.21.31-.56.31a1.34,1.34,0,0,1-.81-.26L8,18.56a1.82,1.82,0,0,0,1,.3c.71,0,1.12-.33,1.12-.78s-.33-.66-.84-.74l-.25,0c-.23,0-.41-.08-.41-.23s.18-.28.46-.28a1.78,1.78,0,0,1,.76.2l.23-.43Zm14.17-.25a.72.72,0,0,0-.64.35v-.3h-.53v2.43h.53V17.44c0-.4.18-.63.51-.63a1.26,1.26,0,0,1,.33.05l.15-.51a2.06,2.06,0,0,0-.35,0ZM17.5,17.6a1.22,1.22,0,0,0,1.3,1.26,1.27,1.27,0,0,0,.86-.27l-.25-.44a1,1,0,0,1-.64.23A.71.71,0,0,1,18,17.6a.74.74,0,0,1,.73-.79,1,1,0,0,1,.64.23l.25-.44a1.27,1.27,0,0,0-.86-.27,1.22,1.22,0,0,0-1.3,1.27Zm4.93,0V16.38H21.9v.3a.91.91,0,0,0-.76-.35,1.27,1.27,0,0,0,0,2.53.86.86,0,0,0,.76-.35v.3h.53Zm-1.95,0a.73.73,0,0,1,.73-.79.74.74,0,0,1,.74.79.75.75,0,0,1-.74.78.73.73,0,0,1-.73-.78ZM14.1,16.33a1.27,1.27,0,0,0,0,2.53,1.56,1.56,0,0,0,1-.33l-.26-.38a1.15,1.15,0,0,1-.71.26.67.67,0,0,1-.73-.59h1.8v-.2a1.12,1.12,0,0,0-1.12-1.29Zm0,.45a.6.6,0,0,1,.61.59H13.44a.65.65,0,0,1,.66-.59Zm13.23.82V15.41H26.8v1.27a.91.91,0,0,0-.76-.35,1.27,1.27,0,0,0,0,2.53.85.85,0,0,0,.76-.35v.3h.53Zm-1.95,0a.73.73,0,0,1,.73-.79.74.74,0,0,1,.74.79.75.75,0,0,1-.74.78.74.74,0,0,1-.73-.78Zm-17.83,0V16.38H7v.3a.91.91,0,0,0-.76-.35,1.27,1.27,0,0,0,0,2.53A.86.86,0,0,0,7,18.51v.3h.53Zm-2,0a.74.74,0,1,1,.74.78A.74.74,0,0,1,5.57,17.6Z"/><rect class="cls-3" x="11.07" y="3.03" width="5.86" height="10.52"/><path class="cls-4" d="M11.44,8.29A6.72,6.72,0,0,1,14,3,6.69,6.69,0,1,0,9.86,15,6.65,6.65,0,0,0,14,13.55,6.69,6.69,0,0,1,11.44,8.29Z"/><path class="cls-5" d="M24.83,8.29A6.69,6.69,0,0,1,14,13.55,6.7,6.7,0,0,0,14,3,6.69,6.69,0,0,1,24.83,8.29Z"/></svg>