<svg id="Layer_1" data-name="Layer 1" xmlns="http://www.w3.org/2000/svg" viewBox="0 0 28 20"><defs><style>.cls-1{fill:#27ade4;}.cls-2{fill:#2d78bc;}.cls-3{fill:#fff;}</style></defs><rect class="cls-1" x="-0.41" y="-0.34" width="28.41" height="20.68"/><path class="cls-2" d="M4.43,7.68,4,6.55,3.52,7.68m11-.45a.67.67,0,0,1-.33.06h-.81V6.66h.82a.64.64,0,0,1,.32,0,.25.25,0,0,1,.14.25.3.3,0,0,1-.14.27m5.79.45-.47-1.13-.45,1.13ZM9.49,8.9H8.81V6.68l-1,2.22H7.25l-1-2.22V8.9H4.93l-.26-.63H3.28L3,8.9H2.3L3.49,6.07h1L5.62,8.75V6.07H6.71L7.58,8l.8-1.92H9.49Zm2.73,0H10V6.07h2.23v.59H10.66v.51h1.52v.58H10.66v.56h1.56Zm3.14-2.07a.78.78,0,0,1-.47.75.74.74,0,0,1,.33.24.79.79,0,0,1,.12.52V8.9h-.68V8.54A.81.81,0,0,0,14.55,8c-.09-.1-.24-.12-.48-.12h-.72v1h-.67V6.07h1.54A1.64,1.64,0,0,1,15,6.2a.66.66,0,0,1,.33.63M16.43,8.9h-.68V6.07h.68Zm7.9,0h-.94L22.12,6.77V8.9H20.76l-.26-.63H19.12l-.26.63h-.78a1.37,1.37,0,0,1-1-.31,1.45,1.45,0,0,1-.36-1.09,1.49,1.49,0,0,1,.36-1.1,1.32,1.32,0,0,1,1-.33h.65v.6h-.63a.66.66,0,0,0-.52.17,1,1,0,0,0-.19.64,1,1,0,0,0,.18.67.66.66,0,0,0,.47.14h.3l.94-2.22h1l1.13,2.68V6.07h1l1.17,2v-2h.68Zm-22,.55H3.43l.26-.62h.57l.26.62H6.76V9l.2.49H8.13L8.33,9v.48H13.9v-1H14c.07,0,.09,0,.09.14v.89H17V9.21a2.2,2.2,0,0,0,1.07.24h1.21l.26-.62h.58l.25.62H22.7V8.86l.35.59h1.88V5.51H23.07V6l-.26-.46h-1.9V6l-.24-.46H18.1A2.27,2.27,0,0,0,17,5.74V5.51H15.22v.23a1.08,1.08,0,0,0-.76-.23H8l-.43,1-.45-1h-2V6l-.22-.46H3.1L2.29,7.38,1.36,9.45Zm0,0"/><path class="cls-3" d="M4.43,7.91,4,6.78,3.52,7.91m11-.45a.58.58,0,0,1-.33.06h-.81V6.89h.82a.64.64,0,0,1,.32.05.25.25,0,0,1,.14.25.3.3,0,0,1-.14.27m5.79.45-.47-1.13-.45,1.13ZM9.49,9.13H8.81V6.91l-1,2.22H7.25l-1-2.22V9.13H4.93L4.67,8.5H3.28L3,9.13H2.3L3.49,6.3h1L5.62,9V6.3H6.71l.87,1.92.8-1.92H9.49Zm2.73,0H10V6.3h2.23v.59H10.66V7.4h1.52V8H10.66v.56h1.56Zm3.14-2.07a.8.8,0,0,1-.47.76.67.67,0,0,1,.33.23.79.79,0,0,1,.12.52v.56h-.68V8.77a.81.81,0,0,0-.11-.55c-.09-.1-.24-.12-.48-.12h-.72v1h-.67V6.3h1.54a1.64,1.64,0,0,1,.81.13.67.67,0,0,1,.33.63m1.07,2.07h-.68V6.3h.68Zm7.9,0h-.94L22.12,7V9.13H20.76L20.5,8.5H19.12l-.26.63h-.78a1.37,1.37,0,0,1-1-.31,1.42,1.42,0,0,1-.36-1.08,1.51,1.51,0,0,1,.36-1.11,1.32,1.32,0,0,1,1-.33h.65v.61h-.63a.65.65,0,0,0-.52.16,1,1,0,0,0-.19.64,1,1,0,0,0,.18.67.67.67,0,0,0,.47.15h.3l.94-2.23h1L21.46,9V6.3h1l1.17,2v-2h.68Zm-22,.56H3.43l.26-.63h.57l.26.63H6.76V9.21l.2.48H8.13l.2-.49v.49H13.9v-1H14c.07,0,.09,0,.09.14v.9H17V9.45a2.31,2.31,0,0,0,1.07.24h1.21l.26-.63h.58l.25.63H22.7v-.6l.35.6h1.88V5.74H23.07V6.2l-.26-.46h-1.9V6.2l-.24-.46H18.1A2.27,2.27,0,0,0,17,6V5.74H15.22V6a1.08,1.08,0,0,0-.76-.23H8l-.43,1-.45-1h-2V6.2l-.22-.46H3.1L2.29,7.61,1.36,9.69Zm0,0"/><path class="cls-2" d="M26.43,12.12V10.31H24.75a1.37,1.37,0,0,0-.83.23v-.23H22.09a1.31,1.31,0,0,0-.8.23v-.23H18v.23a1.72,1.72,0,0,0-.9-.23H15v.23a1.5,1.5,0,0,0-.94-.23H11.62l-.55.61-.51-.61H7v3.95h3.53l.57-.61.53.61h2.18v-.93H14a2,2,0,0,0,.93-.14v1.07h1.8v-1h.08c.12,0,.13,0,.13.12v.91h5.45a1.56,1.56,0,0,0,.91-.25v.25H25a2.32,2.32,0,0,0,1-.18h0a1.41,1.41,0,0,0,.65-1.19,1.49,1.49,0,0,0-.21-.76ZM14,12.76h-.83v.94h-1.3l-.82-.93-.86.93H7.56V10.88h2.68l.83.92.85-.92h2.13c.53,0,1.12.14,1.12.93s-.57.95-1.16.95Zm4-.13a.82.82,0,0,1,.11.51v.56h-.67v-.35c0-.17,0-.42-.11-.55s-.24-.13-.49-.13h-.71v1h-.67V10.88H17a1.6,1.6,0,0,1,.8.13.67.67,0,0,1,.35.63.79.79,0,0,1-.48.75.73.73,0,0,1,.33.24Zm2.75-1.17H19.21V12h1.53v.58H19.21v.57h1.57v.58H18.55V10.88h2.23Zm1.7,2.24h-1.3v-.6h1.29a.38.38,0,0,0,.27-.07.26.26,0,0,0,.08-.19.22.22,0,0,0-.08-.18.31.31,0,0,0-.24-.07c-.62,0-1.4,0-1.4-.87a.83.83,0,0,1,.95-.84h1.34v.6H22.17a.42.42,0,0,0-.27,0,.24.24,0,0,0,0,.41.66.66,0,0,0,.26,0l.36,0a1.07,1.07,0,0,1,.77.22.8.8,0,0,1,.2.6c0,.61-.38.89-1.05.89Zm3.43-.27a1.12,1.12,0,0,1-.83.27H23.79v-.6h1.29a.4.4,0,0,0,.27-.07.3.3,0,0,0,.08-.19.25.25,0,0,0-.08-.18.31.31,0,0,0-.24-.07c-.63,0-1.41,0-1.41-.87a.84.84,0,0,1,1-.84H26v.6H24.77a.44.44,0,0,0-.27,0,.21.21,0,0,0-.1.2.21.21,0,0,0,.15.21.66.66,0,0,0,.26,0h.36a1.07,1.07,0,0,1,.76.23l.06.07,0,0a1,1,0,0,1,.18.56.9.9,0,0,1-.24.62Zm-16-2,.73.82-.76.83H8.22v-.56H9.69V12H8.22v-.51Zm1.59.83,1-1.11v2.27Zm3-.48c0,.24-.16.37-.42.37h-.86v-.72h.87c.24,0,.41.1.41.35Zm3,0a.31.31,0,0,1-.14.27.67.67,0,0,1-.33.06h-.81v-.64H17a.64.64,0,0,1,.32,0,.27.27,0,0,1,.14.26Zm0,0"/><path class="cls-3" d="M26.43,12.36V10.54H24.75a1.37,1.37,0,0,0-.83.23v-.23H22.09a1.31,1.31,0,0,0-.8.23v-.23H18v.23a1.72,1.72,0,0,0-.9-.23H15v.23a1.5,1.5,0,0,0-.94-.23H11.62l-.55.61-.51-.61H7v4h3.53l.57-.61.53.61h2.18v-.93H14a2.17,2.17,0,0,0,.93-.13v1.06h1.8v-1h.08c.12,0,.13,0,.13.12v.91h5.45a1.56,1.56,0,0,0,.91-.25v.25H25a2.32,2.32,0,0,0,1-.18h0a1.44,1.44,0,0,0,.44-2ZM14,13h-.83v.95h-1.3L11.06,13l-.86.94H7.56V11.11h2.68l.83.92.85-.92h2.13c.53,0,1.12.14,1.12.93S14.6,13,14,13Zm4-.13a.82.82,0,0,1,.11.51v.57h-.67v-.36c0-.17,0-.42-.11-.55s-.24-.13-.49-.13h-.71v1h-.67V11.11H17a1.6,1.6,0,0,1,.8.13.68.68,0,0,1,.35.63.79.79,0,0,1-.48.75.81.81,0,0,1,.33.24Zm2.75-1.17H19.21v.52h1.53v.57H19.21v.57h1.57v.59H18.55V11.11h2.23Zm1.7,2.25h-1.3v-.61h1.29a.38.38,0,0,0,.27-.07.24.24,0,0,0,.08-.19.22.22,0,0,0-.08-.18.31.31,0,0,0-.24-.07c-.62,0-1.4,0-1.4-.87a.83.83,0,0,1,.95-.84h1.34v.6H22.17a.42.42,0,0,0-.27,0,.22.22,0,0,0-.1.2.21.21,0,0,0,.14.21.65.65,0,0,0,.26,0h.36a1.07,1.07,0,0,1,.77.22.8.8,0,0,1,.2.6c0,.61-.38.9-1.05.9Zm3.43-.28a1.12,1.12,0,0,1-.83.28H23.79v-.61h1.29a.4.4,0,0,0,.27-.07.28.28,0,0,0,.08-.19.25.25,0,0,0-.08-.18.31.31,0,0,0-.24-.07c-.63,0-1.41,0-1.41-.87a.84.84,0,0,1,1-.84H26v.6H24.77a.44.44,0,0,0-.27,0,.22.22,0,0,0-.1.2.21.21,0,0,0,.15.21.65.65,0,0,0,.26,0h.36a1,1,0,0,1,.76.22l.06.07,0,0a1,1,0,0,1,.18.56.9.9,0,0,1-.24.62Zm-16-2,.73.83-.76.83H8.22v-.57H9.69v-.57H8.22v-.52Zm1.59.84,1-1.12v2.27Zm3-.49c0,.24-.16.37-.42.37h-.86v-.72h.87c.24,0,.41.1.41.35Zm3,0a.3.3,0,0,1-.14.27.67.67,0,0,1-.33.06h-.81v-.64H17a.64.64,0,0,1,.32.05.28.28,0,0,1,.14.26Zm0,0"/></svg>