<svg id="Layer_1" data-name="Layer 1" xmlns="http://www.w3.org/2000/svg" xmlns:xlink="http://www.w3.org/1999/xlink" viewBox="0 0 28 20"><defs><style>.cls-1{fill:none;}.cls-2{fill:#111669;}.cls-3{clip-path:url(#clip-path);}.cls-4{fill:#f3f2f2;}.cls-5{fill:#f7981d;}.cls-6{fill:#293688;}</style><clipPath id="clip-path"><rect class="cls-1" x="-0.21" y="-0.34" width="28.41" height="20.68"/></clipPath></defs><rect class="cls-2" x="-0.41" y="-0.34" width="28.41" height="20.68"/><g class="cls-3"><path class="cls-4" d="M30.62,10A16.62,16.62,0,1,1,14-6.63,16.62,16.62,0,0,1,30.62,10Zm0,0"/><path class="cls-5" d="M14,27.56A20.15,20.15,0,0,0,31.9,16.69H-3.9A20.15,20.15,0,0,0,14,27.56Zm0,0"/><path class="cls-6" d="M14-7.08A19.87,19.87,0,0,0-3.47,3.32H31.47A19.88,19.88,0,0,0,14-7.08Zm0,0"/></g><path class="cls-6" d="M10.37,13.16l1.07-6.32h1.73L12.1,13.16Zm0,0"/><path class="cls-6" d="M18.27,7a4.69,4.69,0,0,0-1.55-.26c-1.71,0-2.92.86-2.93,2.08,0,.91.86,1.42,1.52,1.72s.9.51.9.78c0,.43-.54.62-1,.62a3.6,3.6,0,0,1-1.63-.33l-.23-.1-.24,1.41a5.48,5.48,0,0,0,1.93.34c1.82,0,3-.85,3-2.16,0-.72-.46-1.26-1.46-1.71-.6-.3-1-.49-1-.79s.32-.54,1-.54a3.17,3.17,0,0,1,1.3.24l.16.07Zm0,0"/><path class="cls-6" d="M21.23,6.84a.86.86,0,0,0-.9.54l-2.57,5.78h1.83l.36-1h2.19l.21,1H24L22.55,6.84Zm-.79,4.09c.14-.37.69-1.77.69-1.77l.23-.6.11.54.41,1.83Zm0,0"/><path class="cls-6" d="M7.21,11.17l-.15-.86a4.93,4.93,0,0,0-2.4-2.65l1.53,5.5H8l2.75-6.32H8.94Zm0,0"/><path class="cls-5" d="M2.78,6.84v.1a6,6,0,0,1,4.28,3.37L6.43,7.38a.74.74,0,0,0-.8-.54Zm0,0"/></svg>