<?xml version="1.0" encoding="utf-8"?>
<!-- Generator: Adobe Illustrator 24.1.2, SVG Export Plug-In . SVG Version: 6.00 Build 0)  -->
<svg version="1.1" id="Layer_1" xmlns="http://www.w3.org/2000/svg" xmlns:xlink="http://www.w3.org/1999/xlink" x="0px" y="0px"
	 viewBox="0 0 28 28" style="enable-background:new 0 0 28 28;" xml:space="preserve">
<style type="text/css">
	.st0{fill:#27ADE4;}
	.st1{fill:#2D78BC;}
	.st2{fill:#FFFFFF;}
</style>
<circle class="st0" cx="14" cy="14" r="14"/>
<g>
	<path class="st1" d="M5.8,12l-0.4-1L5,12 M14.4,11.6c-0.1,0-0.2,0.1-0.3,0.1h-0.7v-0.5h0.7c0.1,0,0.2,0,0.3,0
		c0.1,0,0.1,0.1,0.1,0.2C14.5,11.5,14.5,11.6,14.4,11.6 M19.4,12L19,11l-0.4,1H19.4z M10.1,13.1H9.5l0-1.9l-0.8,1.9H8.2l-0.8-1.9
		v1.9H6.2L6,12.5H4.8l-0.2,0.5H3.9l1-2.4h0.9l1,2.3v-2.3h0.9l0.8,1.7l0.7-1.7h1V13.1z M12.5,13.1h-1.9v-2.4h1.9v0.5h-1.3v0.4h1.3
		v0.5h-1.3v0.5h1.3V13.1z M15.2,11.3c0,0.4-0.3,0.6-0.4,0.6c0.1,0,0.2,0.1,0.3,0.2c0.1,0.1,0.1,0.2,0.1,0.4v0.5h-0.6l0-0.3
		c0-0.1,0-0.4-0.1-0.5c-0.1-0.1-0.2-0.1-0.4-0.1h-0.6v0.9h-0.6v-2.4h1.3c0.3,0,0.5,0,0.7,0.1C15.1,10.8,15.2,11,15.2,11.3
		 M16.1,13.1h-0.6v-2.4h0.6V13.1z M22.9,13.1h-0.8L21,11.2v1.8h-1.2l-0.2-0.5h-1.2l-0.2,0.5h-0.7c-0.3,0-0.6-0.1-0.8-0.3
		c-0.2-0.2-0.3-0.5-0.3-0.9c0-0.4,0.1-0.7,0.3-1c0.2-0.2,0.5-0.3,0.9-0.3h0.6v0.5h-0.5c-0.2,0-0.3,0-0.4,0.1
		C17,11.4,17,11.6,17,11.8c0,0.3,0.1,0.4,0.2,0.6c0.1,0.1,0.2,0.1,0.4,0.1h0.3l0.8-1.9h0.9l1,2.3v-2.3h0.9l1,1.7v-1.7h0.6V13.1z
		 M3.9,13.5h1L5.1,13h0.5l0.2,0.5h1.9v-0.4l0.2,0.4h1l0.2-0.4v0.4h4.8l0-0.9H14c0.1,0,0.1,0,0.1,0.1v0.8h2.5v-0.2
		c0.2,0.1,0.5,0.2,0.9,0.2h1l0.2-0.5h0.5l0.2,0.5h2V13l0.3,0.5h1.6v-3.4h-1.6v0.4l-0.2-0.4h-1.6v0.4l-0.2-0.4h-2.2
		c-0.4,0-0.7,0.1-1,0.2v-0.2H15v0.2c-0.2-0.2-0.4-0.2-0.6-0.2H8.8L8.5,11l-0.4-0.9H6.3v0.4l-0.2-0.4H4.6l-0.7,1.6l-0.8,1.8H3.9z
		 M3.9,13.5"/>
	<path class="st2" d="M5.8,12.2l-0.4-1l-0.4,1 M14.4,11.8c-0.1,0-0.2,0.1-0.3,0.1h-0.7v-0.5h0.7c0.1,0,0.2,0,0.3,0
		c0.1,0,0.1,0.1,0.1,0.2C14.5,11.7,14.5,11.8,14.4,11.8 M19.4,12.2l-0.4-1l-0.4,1H19.4z M10.1,13.3H9.5l0-1.9l-0.8,1.9H8.2l-0.8-1.9
		v1.9H6.2L6,12.7H4.8l-0.2,0.5H3.9l1-2.4h0.9l1,2.3v-2.3h0.9l0.8,1.7l0.7-1.7h1V13.3z M12.5,13.3h-1.9v-2.4h1.9v0.5h-1.3v0.4h1.3
		v0.5h-1.3v0.5h1.3V13.3z M15.2,11.5c0,0.4-0.3,0.6-0.4,0.6c0.1,0,0.2,0.1,0.3,0.2c0.1,0.1,0.1,0.2,0.1,0.4v0.5h-0.6l0-0.3
		c0-0.1,0-0.4-0.1-0.5c-0.1-0.1-0.2-0.1-0.4-0.1h-0.6v0.9h-0.6v-2.4h1.3c0.3,0,0.5,0,0.7,0.1C15.1,11,15.2,11.2,15.2,11.5
		 M16.1,13.3h-0.6v-2.4h0.6V13.3z M22.9,13.3h-0.8L21,11.4v1.8h-1.2l-0.2-0.5h-1.2l-0.2,0.5h-0.7c-0.3,0-0.6-0.1-0.8-0.3
		c-0.2-0.2-0.3-0.5-0.3-0.9c0-0.4,0.1-0.7,0.3-1c0.2-0.2,0.5-0.3,0.9-0.3h0.6v0.5h-0.5c-0.2,0-0.3,0-0.4,0.1C17,11.6,17,11.8,17,12
		c0,0.3,0.1,0.4,0.2,0.6c0.1,0.1,0.2,0.1,0.4,0.1h0.3l0.8-1.9h0.9l1,2.3v-2.3h0.9l1,1.7v-1.7h0.6V13.3z M3.9,13.7h1l0.2-0.5h0.5
		l0.2,0.5h1.9v-0.4l0.2,0.4h1l0.2-0.4v0.4h4.8l0-0.9H14c0.1,0,0.1,0,0.1,0.1v0.8h2.5v-0.2c0.2,0.1,0.5,0.2,0.9,0.2h1l0.2-0.5h0.5
		l0.2,0.5h2v-0.5l0.3,0.5h1.6v-3.4h-1.6v0.4l-0.2-0.4h-1.6v0.4l-0.2-0.4h-2.2c-0.4,0-0.7,0.1-1,0.2v-0.2H15v0.2
		c-0.2-0.2-0.4-0.2-0.6-0.2H8.8l-0.4,0.9l-0.4-0.9H6.3v0.4l-0.2-0.4H4.6l-0.7,1.6l-0.8,1.8H3.9z M3.9,13.7"/>
	<path class="st1" d="M24.7,15.8v-1.6h-1.4c-0.3,0-0.6,0.1-0.7,0.2v-0.2H21c-0.3,0-0.5,0.1-0.7,0.2v-0.2h-2.8v0.2
		c-0.2-0.2-0.6-0.2-0.8-0.2h-1.9v0.2c-0.2-0.2-0.6-0.2-0.8-0.2H12l-0.5,0.5L11,14.3H7.9v3.4h3l0.5-0.5l0.5,0.5l1.9,0v-0.8H14
		c0.2,0,0.5,0,0.8-0.1v0.9h1.5v-0.9h0.1c0.1,0,0.1,0,0.1,0.1v0.8h4.7c0.3,0,0.6-0.1,0.8-0.2v0.2h1.5c0.3,0,0.6,0,0.8-0.2v0
		c0.3-0.2,0.6-0.6,0.6-1C24.9,16.2,24.8,16,24.7,15.8L24.7,15.8z M14,16.4h-0.7v0.8h-1.1l-0.7-0.8l-0.7,0.8H8.5v-2.4h2.3l0.7,0.8
		l0.7-0.8H14c0.5,0,1,0.1,1,0.8C15,16.2,14.5,16.4,14,16.4L14,16.4z M17.5,16.3c0.1,0.1,0.1,0.2,0.1,0.4v0.5H17v-0.3
		c0-0.1,0-0.4-0.1-0.5c-0.1-0.1-0.2-0.1-0.4-0.1h-0.6v0.9h-0.6v-2.4h1.3c0.3,0,0.5,0,0.7,0.1c0.2,0.1,0.3,0.3,0.3,0.5
		c0,0.4-0.3,0.6-0.4,0.6C17.3,16.1,17.4,16.2,17.5,16.3L17.5,16.3z M19.8,15.3h-1.3v0.4h1.3v0.5h-1.3v0.5l1.3,0v0.5h-1.9v-2.4h1.9
		V15.3z M21.3,17.2h-1.1v-0.5h1.1c0.1,0,0.2,0,0.2-0.1c0,0,0.1-0.1,0.1-0.2c0-0.1,0-0.1-0.1-0.2c0,0-0.1-0.1-0.2-0.1
		c-0.5,0-1.2,0-1.2-0.8c0-0.4,0.2-0.7,0.8-0.7h1.2v0.5H21c-0.1,0-0.2,0-0.2,0c-0.1,0-0.1,0.1-0.1,0.2c0,0.1,0.1,0.2,0.1,0.2
		c0.1,0,0.1,0,0.2,0l0.3,0c0.3,0,0.5,0.1,0.7,0.2c0.1,0.1,0.2,0.3,0.2,0.5C22.2,16.9,21.9,17.2,21.3,17.2L21.3,17.2z M24.2,16.9
		c-0.2,0.2-0.4,0.2-0.7,0.2h-1.1v-0.5h1.1c0.1,0,0.2,0,0.2-0.1c0,0,0.1-0.1,0.1-0.2c0-0.1,0-0.1-0.1-0.2c0,0-0.1-0.1-0.2-0.1
		c-0.5,0-1.2,0-1.2-0.8c0-0.4,0.2-0.7,0.8-0.7h1.1v0.5h-1c-0.1,0-0.2,0-0.2,0c-0.1,0-0.1,0.1-0.1,0.2c0,0.1,0.1,0.2,0.1,0.2
		c0.1,0,0.1,0,0.2,0l0.3,0c0.3,0,0.5,0.1,0.7,0.2c0,0,0,0,0.1,0.1c0,0,0,0,0,0c0.1,0.1,0.2,0.3,0.2,0.5
		C24.4,16.6,24.4,16.8,24.2,16.9L24.2,16.9z M10.5,15.3l0.6,0.7l-0.7,0.7H9v-0.5h1.3v-0.5H9v-0.4H10.5z M11.8,16l0.9-1v2L11.8,16z
		 M14.4,15.6c0,0.2-0.1,0.3-0.4,0.3h-0.7v-0.6H14C14.2,15.3,14.4,15.3,14.4,15.6L14.4,15.6z M17,15.5c0,0.1,0,0.2-0.1,0.2
		c-0.1,0-0.2,0.1-0.3,0.1h-0.7v-0.5h0.7c0.1,0,0.2,0,0.3,0C16.9,15.3,17,15.4,17,15.5L17,15.5z M17,15.5"/>
	<path class="st2" d="M24.7,16v-1.6h-1.4c-0.3,0-0.6,0.1-0.7,0.2v-0.2H21c-0.3,0-0.5,0.1-0.7,0.2v-0.2h-2.8v0.2
		c-0.2-0.2-0.6-0.2-0.8-0.2h-1.9v0.2c-0.2-0.2-0.6-0.2-0.8-0.2H12L11.5,15L11,14.5H7.9v3.4h3l0.5-0.5l0.5,0.5l1.9,0v-0.8H14
		c0.2,0,0.5,0,0.8-0.1v0.9h1.5V17h0.1c0.1,0,0.1,0,0.1,0.1v0.8h4.7c0.3,0,0.6-0.1,0.8-0.2v0.2h1.5c0.3,0,0.6,0,0.8-0.2v0
		c0.3-0.2,0.6-0.6,0.6-1C24.9,16.4,24.8,16.2,24.7,16L24.7,16z M14,16.6h-0.7v0.8h-1.1l-0.7-0.8l-0.7,0.8H8.5V15h2.3l0.7,0.8
		l0.7-0.8H14c0.5,0,1,0.1,1,0.8C15,16.4,14.5,16.6,14,16.6L14,16.6z M17.5,16.5c0.1,0.1,0.1,0.2,0.1,0.4v0.5H17v-0.3
		c0-0.1,0-0.4-0.1-0.5c-0.1-0.1-0.2-0.1-0.4-0.1h-0.6v0.9h-0.6V15h1.3c0.3,0,0.5,0,0.7,0.1c0.2,0.1,0.3,0.3,0.3,0.5
		c0,0.4-0.3,0.6-0.4,0.6C17.3,16.3,17.4,16.4,17.5,16.5L17.5,16.5z M19.8,15.5h-1.3v0.4h1.3v0.5h-1.3v0.5l1.3,0v0.5h-1.9V15h1.9
		V15.5z M21.3,17.4h-1.1v-0.5h1.1c0.1,0,0.2,0,0.2-0.1c0,0,0.1-0.1,0.1-0.2c0-0.1,0-0.1-0.1-0.2c0,0-0.1-0.1-0.2-0.1
		c-0.5,0-1.2,0-1.2-0.8c0-0.4,0.2-0.7,0.8-0.7h1.2v0.5H21c-0.1,0-0.2,0-0.2,0c-0.1,0-0.1,0.1-0.1,0.2c0,0.1,0.1,0.2,0.1,0.2
		c0.1,0,0.1,0,0.2,0l0.3,0c0.3,0,0.5,0.1,0.7,0.2c0.1,0.1,0.2,0.3,0.2,0.5C22.2,17.1,21.9,17.4,21.3,17.4L21.3,17.4z M24.2,17.1
		c-0.2,0.2-0.4,0.2-0.7,0.2h-1.1v-0.5h1.1c0.1,0,0.2,0,0.2-0.1c0,0,0.1-0.1,0.1-0.2c0-0.1,0-0.1-0.1-0.2c0,0-0.1-0.1-0.2-0.1
		c-0.5,0-1.2,0-1.2-0.8c0-0.4,0.2-0.7,0.8-0.7h1.1v0.5h-1c-0.1,0-0.2,0-0.2,0c-0.1,0-0.1,0.1-0.1,0.2c0,0.1,0.1,0.2,0.1,0.2
		c0.1,0,0.1,0,0.2,0l0.3,0c0.3,0,0.5,0.1,0.7,0.2c0,0,0,0,0.1,0.1c0,0,0,0,0,0c0.1,0.1,0.2,0.3,0.2,0.5C24.4,16.8,24.4,17,24.2,17.1
		L24.2,17.1z M10.5,15.5l0.6,0.7l-0.7,0.7H9v-0.5h1.3v-0.5H9v-0.4H10.5z M11.8,16.2l0.9-1v2L11.8,16.2z M14.4,15.8
		c0,0.2-0.1,0.3-0.4,0.3h-0.7v-0.6H14C14.2,15.5,14.4,15.5,14.4,15.8L14.4,15.8z M17,15.7c0,0.1,0,0.2-0.1,0.2
		c-0.1,0-0.2,0.1-0.3,0.1h-0.7v-0.5h0.7c0.1,0,0.2,0,0.3,0C16.9,15.5,17,15.6,17,15.7L17,15.7z M17,15.7"/>
</g>
</svg>
