<?xml version="1.0" encoding="utf-8"?>
<!-- Generator: Adobe Illustrator 24.1.2, SVG Export Plug-In . SVG Version: 6.00 Build 0)  -->
<svg version="1.1" id="Layer_1" xmlns="http://www.w3.org/2000/svg" xmlns:xlink="http://www.w3.org/1999/xlink" x="0px" y="0px"
	 viewBox="0 0 1029.03 137.96" style="enable-background:new 0 0 1029.03 137.96;" xml:space="preserve">
<style type="text/css">
	.st0{fill:#636363;}
	.st1{fill:#FFFF00;}
	.st2{fill:#FFFFFF;}
</style>
<g>
	<path class="st2" d="M13.93,64.66H55.3l-5.14,15.65c-0.15,0.72-0.4,1.75-0.75,3.11c-0.36,1.36-0.68,2.72-0.96,4.07
		c-0.29,1.36-0.58,2.61-0.86,3.75c-0.29,1.15-0.43,1.93-0.43,2.36c0,3.86,0.54,6.64,1.61,8.36c1.07,1.71,2.5,2.97,4.29,3.75
		c1.78,0.79,3.78,1.25,6,1.39c2.21,0.14,4.39,0.5,6.54,1.07l15.65-43.51h40.72l-16.07,44.58h25.93l16.07-44.58h40.73l-26.58,73.3
		H47.37c-9,0-16.54-0.78-22.61-2.36c-6.08-1.57-10.93-3.64-14.58-6.22c-3.64-2.57-6.25-5.57-7.82-9C0.78,116.96,0,113.31,0,109.46
		c0-2.43,0.25-4.79,0.75-7.07c0.5-2.28,1.18-4.64,2.04-7.07L13.93,64.66z M28.72,24.36h40.29L59.16,53.3H18.22L28.72,24.36z
		 M96.02,24.36h40.73l-10.5,28.94H85.52L96.02,24.36z M162.68,24.36h40.72L192.9,53.3h-40.73L162.68,24.36z"/>
	<polygon class="st2" points="201.05,64.66 242.2,64.66 215.62,137.96 174.47,137.96 	"/>
	<path class="st2" d="M254.63,64.66h74.38l4.5,23.58l8.58-23.58h40.72l-26.58,73.3h-51.87l-12-63.87l-23.15,63.87h-41.15
		L254.63,64.66z M269.42,24.36h51.87l5.57,28.94h-67.95L269.42,24.36z M356.87,24.36h40.73l-10.5,28.94h-40.94L356.87,24.36z"/>
	<path class="st1" d="M443.68,64.66h44.8l-46.3,44.37h57.66c-1,2-2.68,4.61-5.04,7.82c-2.36,3.22-4.86,6.4-7.5,9.54
		c-2.65,3.15-5.22,5.86-7.72,8.15c-2.5,2.29-4.32,3.43-5.46,3.43H367.16L443.68,64.66z M398.02,53.09c0.14-0.57,1.18-2.15,3.11-4.72
		c1.93-2.57,4.21-5.43,6.86-8.57c2.64-3.14,5.36-6.18,8.14-9.11c2.79-2.93,5.18-5.04,7.18-6.32H530.7L500.47,53.3H398.02V53.09z"/>
	<path class="st2" d="M530.05,53.09c0.14-0.57,1.18-2.15,3.11-4.72c1.93-2.57,4.21-5.43,6.86-8.57c2.64-3.14,5.36-6.18,8.14-9.11
		c2.79-2.93,5.18-5.04,7.18-6.32h107.38c-1,1.86-2.64,4.36-4.93,7.5c-2.29,3.15-4.71,6.29-7.29,9.43c-2.57,3.15-5.08,5.89-7.5,8.25
		c-2.43,2.36-4.29,3.61-5.58,3.75H530.05V53.09z M566.27,64.66h41.15l-26.58,73.3H539.7L566.27,64.66z"/>
	<path class="st2" d="M659.29,64.66h41.15l-26.58,73.3h-41.15L659.29,64.66z"/>
	<path class="st2" d="M812.33,137.96l23.15-63.87l-58.3,63.87h-14.79L750.6,74.09l-23.15,63.87H686.3l26.58-73.3h74.38l3.21,16.72
		l15.43-16.72h74.16l-26.58,73.3H812.33z M727.67,24.36h51.87l5.57,28.94h-67.95L727.67,24.36z M842.98,24.36h51.87l-10.5,28.94
		H816.4L842.98,24.36z"/>
	<path class="st2" d="M945.44,67.23h49.51L964.3,96.17h-42.65l-4.71,12.86h82.09c-0.14,0.29-0.5,0.89-1.07,1.82
		c-0.57,0.93-1.14,1.9-1.71,2.89c-0.57,1-1.14,1.93-1.71,2.79c-0.57,0.86-0.93,1.36-1.07,1.5c-1.29,1.72-3.04,3.72-5.25,6
		c-2.22,2.29-4.39,4.47-6.54,6.54c-2.14,2.07-4.04,3.83-5.68,5.25c-1.64,1.43-2.54,2.14-2.68,2.14H865.49l26.58-73.3h41.15
		l-8.15,22.29L945.44,67.23z M1029.03,24.36c-1,1.86-2.64,4.36-4.93,7.5c-2.29,3.15-4.71,6.29-7.29,9.43
		c-2.57,3.15-5.08,5.89-7.5,8.25c-2.43,2.36-4.29,3.61-5.58,3.75H896.35l10.5-28.94H1029.03z"/>
	<g>
		<polygon class="st1" points="710.96,0 689.89,11.41 661.65,0 		"/>
		<polygon class="st1" points="710.96,0 684.57,47.62 678.96,57.74 689.89,11.41 		"/>
	</g>
	<g>
		<polygon class="st1" points="254.53,0 233.46,11.41 205.22,0 		"/>
		<polygon class="st1" points="254.53,0 228.14,47.62 222.53,57.74 233.46,11.41 		"/>
	</g>
</g>
</svg>
