<?xml version="1.0" encoding="utf-8"?>
<!-- Generator: Adobe Illustrator 24.1.2, SVG Export Plug-In . SVG Version: 6.00 Build 0)  -->
<svg version="1.1" id="Layer_1" xmlns="http://www.w3.org/2000/svg" xmlns:xlink="http://www.w3.org/1999/xlink" x="0px" y="0px"
	 viewBox="0 0 28 28" style="enable-background:new 0 0 28 28;" xml:space="preserve">
<style type="text/css">
	.st0{fill:#111669;}
	.st1{fill:#FFFFFF;}
	.st2{fill:#FF5F00;}
	.st3{fill:#EB001B;}
	.st4{fill:#F79E1B;}
</style>
<circle class="st0" cx="14" cy="14" r="14"/>
<g>
	<path class="st1" d="M7.6,21.8v-1c0-0.4-0.2-0.7-0.7-0.7c-0.2,0-0.4,0.1-0.6,0.3c-0.1-0.2-0.3-0.3-0.6-0.3c-0.2,0-0.3,0.1-0.5,0.2
		v-0.2H4.9v1.7h0.4v-0.9c0-0.3,0.2-0.4,0.4-0.4c0.2,0,0.4,0.2,0.4,0.4v0.9h0.4v-0.9c0-0.3,0.2-0.4,0.4-0.4c0.2,0,0.4,0.2,0.4,0.4
		v0.9H7.6L7.6,21.8z M13,20.1h-0.6v-0.5H12v0.5h-0.3v0.3H12v0.8c0,0.4,0.2,0.6,0.6,0.6c0.2,0,0.3-0.1,0.5-0.1l-0.1-0.3
		c-0.1,0.1-0.2,0.1-0.3,0.1c-0.2,0-0.2-0.1-0.2-0.3v-0.7H13V20.1L13,20.1z M16.1,20.1c-0.2,0-0.3,0.1-0.4,0.2v-0.2h-0.4v1.7h0.4
		v-0.9c0-0.3,0.1-0.4,0.3-0.4c0.1,0,0.2,0,0.2,0l0.1-0.3C16.2,20.1,16.1,20.1,16.1,20.1L16.1,20.1L16.1,20.1z M11.4,20.3
		c-0.2-0.1-0.4-0.2-0.7-0.2c-0.4,0-0.7,0.2-0.7,0.5c0,0.3,0.2,0.4,0.6,0.5l0.2,0c0.2,0,0.3,0.1,0.3,0.2c0,0.1-0.1,0.2-0.4,0.2
		c-0.2,0-0.4-0.1-0.6-0.2l-0.2,0.3c0.2,0.1,0.5,0.2,0.7,0.2c0.5,0,0.8-0.2,0.8-0.5c0-0.3-0.2-0.5-0.6-0.5l-0.2,0
		c-0.2,0-0.3-0.1-0.3-0.2c0-0.1,0.1-0.2,0.3-0.2c0.2,0,0.4,0.1,0.5,0.1L11.4,20.3L11.4,20.3z M21.1,20.1c-0.2,0-0.3,0.1-0.4,0.2
		v-0.2h-0.4v1.7h0.4v-0.9c0-0.3,0.1-0.4,0.3-0.4c0.1,0,0.2,0,0.2,0l0.1-0.3C21.3,20.1,21.1,20.1,21.1,20.1L21.1,20.1L21.1,20.1z
		 M16.4,21c0,0.5,0.3,0.9,0.9,0.9c0.2,0,0.4-0.1,0.6-0.2l-0.2-0.3c-0.1,0.1-0.3,0.2-0.4,0.2c-0.3,0-0.5-0.2-0.5-0.5
		c0-0.3,0.2-0.5,0.5-0.5c0.2,0,0.3,0.1,0.4,0.2l0.2-0.3c-0.2-0.1-0.3-0.2-0.6-0.2C16.8,20.1,16.4,20.5,16.4,21L16.4,21L16.4,21z
		 M19.8,21v-0.8h-0.4v0.2c-0.1-0.2-0.3-0.2-0.5-0.2c-0.5,0-0.8,0.4-0.8,0.9c0,0.5,0.4,0.9,0.8,0.9c0.2,0,0.4-0.1,0.5-0.2v0.2h0.4V21
		z M18.5,21c0-0.3,0.2-0.5,0.5-0.5c0.3,0,0.5,0.2,0.5,0.5c0,0.3-0.2,0.5-0.5,0.5C18.6,21.5,18.5,21.3,18.5,21L18.5,21z M14.1,20.1
		c-0.5,0-0.8,0.3-0.8,0.9c0,0.5,0.3,0.9,0.9,0.9c0.2,0,0.5-0.1,0.7-0.2l-0.2-0.3c-0.1,0.1-0.3,0.2-0.5,0.2c-0.2,0-0.5-0.1-0.5-0.4
		h1.2V21C14.9,20.5,14.6,20.1,14.1,20.1L14.1,20.1L14.1,20.1z M14.1,20.4c0.2,0,0.4,0.1,0.4,0.4h-0.9C13.7,20.6,13.8,20.4,14.1,20.4
		L14.1,20.4z M23.1,21v-1.5h-0.4v0.9c-0.1-0.2-0.3-0.2-0.5-0.2c-0.5,0-0.8,0.4-0.8,0.9c0,0.5,0.4,0.9,0.8,0.9c0.2,0,0.4-0.1,0.5-0.2
		v0.2h0.4V21z M21.8,21c0-0.3,0.2-0.5,0.5-0.5c0.3,0,0.5,0.2,0.5,0.5c0,0.3-0.2,0.5-0.5,0.5C22,21.5,21.8,21.3,21.8,21L21.8,21z
		 M9.6,21v-0.8H9.2v0.2c-0.1-0.2-0.3-0.2-0.5-0.2c-0.5,0-0.8,0.4-0.8,0.9c0,0.5,0.4,0.9,0.8,0.9c0.2,0,0.4-0.1,0.5-0.2v0.2h0.4V21z
		 M8.3,21c0-0.3,0.2-0.5,0.5-0.5c0.3,0,0.5,0.2,0.5,0.5c0,0.3-0.2,0.5-0.5,0.5C8.5,21.5,8.3,21.3,8.3,21z"/>
	<rect x="11.3" y="7.5" class="st2" width="5.5" height="9.8"/>
	<path class="st3" d="M11.6,12.4c0-2,0.9-3.8,2.4-4.9c-1.1-0.8-2.4-1.3-3.9-1.3c-3.5,0-6.3,2.8-6.3,6.3s2.8,6.3,6.3,6.3
		c1.5,0,2.8-0.5,3.9-1.3C12.5,16.2,11.6,14.4,11.6,12.4z"/>
	<path class="st4" d="M24.1,12.4c0,3.5-2.8,6.3-6.3,6.3c-1.5,0-2.8-0.5-3.9-1.3c1.5-1.1,2.4-2.9,2.4-4.9S15.5,8.6,14,7.5
		c1.1-0.8,2.4-1.3,3.9-1.3C21.3,6.1,24.1,9,24.1,12.4z"/>
</g>
</svg>
