<?xml version="1.0" encoding="utf-8"?>
<!-- Generator: Adobe Illustrator 24.1.2, SVG Export Plug-In . SVG Version: 6.00 Build 0)  -->
<svg version="1.1" id="Layer_1" xmlns="http://www.w3.org/2000/svg" xmlns:xlink="http://www.w3.org/1999/xlink" x="0px" y="0px"
	 viewBox="0 0 28 28" style="enable-background:new 0 0 28 28;" xml:space="preserve">
<style type="text/css">
	.st0{fill:#F3F2F2;}
	.st1{fill:#293688;}
	.st2{fill:#F7981D;}
</style>
<g>
	<path class="st0" d="M28,14c0,7.7-6.3,14-14,14C6.3,28,0,21.7,0,14S6.3,0,14,0C21.7,0,28,6.3,28,14L28,14z M28,14"/>
	<path class="st1" d="M10.4,16.7l1.1-6.3h1.7l-1.1,6.3H10.4z M10.4,16.7"/>
	<path class="st1" d="M18.3,10.5c-0.3-0.1-0.9-0.3-1.6-0.3c-1.7,0-2.9,0.9-2.9,2.1c0,0.9,0.9,1.4,1.5,1.7c0.7,0.3,0.9,0.5,0.9,0.8
		c0,0.4-0.5,0.6-1,0.6c-0.7,0-1.1-0.1-1.6-0.3L13.3,15l-0.2,1.4c0.4,0.2,1.2,0.3,1.9,0.3c1.8,0,3-0.8,3-2.2c0-0.7-0.5-1.3-1.5-1.7
		c-0.6-0.3-1-0.5-1-0.8c0-0.3,0.3-0.5,1-0.5c0.6,0,1,0.1,1.3,0.2l0.2,0.1L18.3,10.5z M18.3,10.5"/>
	<path class="st1" d="M21.2,10.4c-0.4,0-0.7,0.1-0.9,0.5l-2.6,5.8h1.8l0.4-1h2.2l0.2,1H24l-1.4-6.3H21.2z M20.4,14.4
		c0.1-0.4,0.7-1.8,0.7-1.8c0,0,0.1-0.4,0.2-0.6l0.1,0.5c0,0,0.3,1.5,0.4,1.8H20.4z M20.4,14.4"/>
	<path class="st1" d="M7.2,14.7l-0.2-0.9c-0.3-1-1.3-2.1-2.4-2.6l1.5,5.5H8l2.8-6.3H8.9L7.2,14.7z M7.2,14.7"/>
	<path class="st2" d="M2.8,10.4v0.1C5,11,6.5,12.3,7.1,13.8l-0.6-2.9c-0.1-0.4-0.4-0.5-0.8-0.5H2.8z M2.8,10.4"/>
	<path class="st2" d="M14,28c5.4,0,10.1-3.1,12.4-7.5H1.6C3.9,24.9,8.6,28,14,28L14,28z M14,28"/>
	<path class="st1" d="M14,0C8.7,0,4.1,3,1.7,7.3h24.6C23.9,3,19.3,0,14,0L14,0z M14,0"/>
</g>
</svg>
