<?xml version="1.0" encoding="utf-8"?>
<!-- Generator: Adobe Illustrator 24.1.2, SVG Export Plug-In . SVG Version: 6.00 Build 0)  -->
<svg version="1.1" id="Layer_1" xmlns="http://www.w3.org/2000/svg" xmlns:xlink="http://www.w3.org/1999/xlink" x="0px" y="0px"
	 viewBox="0 0 28 28" style="enable-background:new 0 0 28 28;" xml:space="preserve">
<style type="text/css">
	.st0{fill:#F1F1F1;}
	.st1{fill:#03A9F4;}
	.st2{fill:#283593;}
</style>
<circle class="st0" cx="14" cy="14" r="14"/>
<g>
	<path class="st1" d="M17.2,8.9c-0.4-0.3-0.9-0.4-1.3-0.3c-0.1,0-0.2,0.2-0.2,0.3l-0.1,0.7c-0.2,1.1-1.1,1.8-2.1,1.8h-1.5
		c-0.2,0-0.3,0.1-0.4,0.3l-1.1,4.4c0,0.2,0.1,0.4,0.3,0.4c0,0,0.1,0,0.1,0h1.8c0.2,0,0.3-0.1,0.4-0.3l0.7-2.6h1.4
		c1.1,0,2-0.7,2.3-1.8l0.3-1.1C17.8,10.1,17.6,9.4,17.2,8.9L17.2,8.9z M17.2,8.9"/>
	<path class="st2" d="M5.4,20.9c-0.2,0-0.4-0.2-0.4-0.4c0,0,0-0.1,0-0.1L5.4,19v0l0.4-1.4c0-0.2,0.2-0.3,0.4-0.3H7
		c0.5,0,0.9,0.4,0.9,0.9c0,0.1,0,0.1,0,0.2l-0.1,0.4c-0.1,0.4-0.5,0.7-0.9,0.7H6l-0.3,1.2C5.7,20.8,5.5,20.9,5.4,20.9L5.4,20.9z
		 M6.2,18.7h0.7c0.1,0,0.2-0.1,0.2-0.1l0.1-0.4c0-0.1,0-0.2-0.1-0.2c0,0,0,0,0,0H6.4L6.2,18.7z M6.2,18.7"/>
	<path class="st2" d="M9.3,20.9H8.7c-0.6,0-1-0.5-1-1c0-0.1,0-0.2,0-0.2l0-0.2c0.1-0.4,0.5-0.7,0.9-0.7h0.5c0.6,0,1,0.5,1,1
		c0,0.1,0,0.2,0,0.2l0,0.2C10.1,20.6,9.7,20.9,9.3,20.9L9.3,20.9z M8.5,19.8c0,0.2,0.1,0.3,0.2,0.3c0,0,0,0,0.1,0h0.5
		c0.1,0,0.2-0.1,0.2-0.2l0-0.2c0-0.2-0.1-0.3-0.2-0.3c0,0,0,0-0.1,0H8.8c-0.1,0-0.2,0.1-0.2,0.2L8.5,19.8z M8.5,19.8"/>
	<path class="st2" d="M9.7,20.9c-0.2,0-0.4-0.2-0.4-0.4c0,0,0-0.1,0-0.1L9.7,19c0-0.2,0.2-0.3,0.4-0.3c0.2,0,0.3,0.2,0.3,0.4
		l-0.4,1.5C10,20.8,9.9,20.9,9.7,20.9L9.7,20.9z M9.7,20.9"/>
	<path class="st1" d="M14.1,20.9c-0.2,0-0.4-0.2-0.4-0.4c0,0,0-0.1,0-0.1l0.4-1.4v0l0.4-1.4c0-0.2,0.2-0.3,0.4-0.3h0.9
		c0.5,0,0.9,0.4,0.9,0.9c0,0.1,0,0.1,0,0.2l-0.1,0.4c-0.1,0.4-0.5,0.7-0.9,0.7h-0.9l-0.3,1.2C14.4,20.8,14.3,20.9,14.1,20.9
		L14.1,20.9z M14.9,18.7h0.7c0.1,0,0.2-0.1,0.2-0.1l0.1-0.4c0-0.1,0-0.2-0.1-0.2c0,0,0,0,0,0h-0.6L14.9,18.7z M14.9,18.7"/>
	<path class="st1" d="M18,20.9h-0.5c-0.6,0-1-0.5-1-1c0-0.1,0-0.2,0-0.2l0-0.2c0.1-0.4,0.5-0.7,0.9-0.7H18c0.6,0,1,0.5,1,1
		c0,0.1,0,0.2,0,0.2l0,0.2C18.8,20.6,18.4,20.9,18,20.9L18,20.9z M17.2,19.8c0,0.2,0.1,0.3,0.2,0.3c0,0,0,0,0.1,0H18
		c0.1,0,0.2-0.1,0.2-0.2l0-0.2c0-0.2-0.1-0.3-0.2-0.3c0,0,0,0-0.1,0h-0.5c-0.1,0-0.2,0.1-0.2,0.2L17.2,19.8z M17.2,19.8"/>
	<path class="st1" d="M18.5,20.9c-0.2,0-0.4-0.2-0.4-0.4c0,0,0-0.1,0-0.1l0.4-1.5c0-0.2,0.2-0.3,0.4-0.3c0.2,0,0.3,0.2,0.3,0.4
		l-0.4,1.5C18.8,20.8,18.6,20.9,18.5,20.9L18.5,20.9z M18.5,20.9"/>
	<path class="st2" d="M11.9,20.5c-0.1,0-0.2-0.1-0.3-0.2l-0.7-1.1c-0.1-0.2-0.1-0.4,0.1-0.5c0.2-0.1,0.4-0.1,0.5,0.1l0.7,1.1
		c0.1,0.2,0.1,0.4-0.1,0.5C12.1,20.5,12,20.5,11.9,20.5L11.9,20.5z M11.9,20.5"/>
	<path class="st2" d="M11.2,21.6c-0.2,0-0.4-0.2-0.4-0.4c0-0.1,0-0.2,0.1-0.2l1.8-2.2c0.1-0.2,0.4-0.2,0.5,0c0.2,0.1,0.2,0.4,0,0.5
		l-1.8,2.2C11.4,21.6,11.3,21.6,11.2,21.6L11.2,21.6z M11.2,21.6"/>
	<g>
		<path class="st1" d="M19.9,20.9c-0.2,0-0.4-0.2-0.4-0.4c0,0,0-0.1,0-0.1l0.7-2.9c0-0.2,0.2-0.3,0.4-0.3c0.2,0,0.3,0.2,0.3,0.4
			l-0.7,2.9C20.2,20.8,20.1,20.9,19.9,20.9L19.9,20.9z M19.9,20.9"/>
		<path class="st2" d="M16,7c-0.3-0.4-0.9-0.6-1.4-0.6h-4.1c-0.2,0-0.3,0.1-0.4,0.3l-1.5,8c0,0.2,0.1,0.4,0.3,0.4c0,0,0,0,0.1,0h2.2
			c0.2,0,0.3-0.1,0.4-0.3l0.7-2.6h1.2c1.4,0,2.6-1.1,2.8-2.5l0.2-1.2C16.5,7.9,16.3,7.4,16,7L16,7z M16,7"/>
	</g>
</g>
</svg>
