<svg id="Layer_1" data-name="Layer 1" xmlns="http://www.w3.org/2000/svg" viewBox="0 0 28 20"><defs><style>.cls-1{fill:#f1f1f1;}.cls-2{fill:#03a9f4;}.cls-3{fill:#283593;}</style></defs><rect class="cls-1" x="-0.41" y="-0.34" width="28.41" height="20.68"/><path class="cls-2" d="M18.55,4.42a1.43,1.43,0,0,0-1.45-.31.42.42,0,0,0-.27.32l-.11.77a2.36,2.36,0,0,1-2.32,2H12.81a.39.39,0,0,0-.39.3l-1.19,4.77a.39.39,0,0,0,.29.48H13.6a.41.41,0,0,0,.39-.3l.72-2.88h1.55a2.57,2.57,0,0,0,2.51-2l.3-1.18a2.11,2.11,0,0,0-.52-2Zm0,0"/><path class="cls-3" d="M5.65,17.56a.4.4,0,0,1-.4-.4.38.38,0,0,1,0-.1l.4-1.58v0l.4-1.58a.39.39,0,0,1,.38-.3h1a1,1,0,0,1,1,1.24l-.1.39a1,1,0,0,1-1,.76h-1L6,17.26a.4.4,0,0,1-.38.3Zm.9-2.39h.8a.2.2,0,0,0,.2-.15l.1-.4a.21.21,0,0,0-.15-.24H6.75Zm0,0"/><path class="cls-3" d="M9.9,17.56H9.33a1.1,1.1,0,0,1-1.1-1.1,1.24,1.24,0,0,1,0-.27L8.32,16a1,1,0,0,1,1-.81h.57a1.1,1.1,0,0,1,1.1,1.1.84.84,0,0,1,0,.27l-.05.21a1.06,1.06,0,0,1-1,.81ZM9,16.38a.3.3,0,0,0,.22.37H9.9a.27.27,0,0,0,.26-.2l.05-.21A.3.3,0,0,0,10,16H9.35a.27.27,0,0,0-.26.2Zm0,0"/><path class="cls-3" d="M10.42,17.56a.4.4,0,0,1-.4-.4s0-.06,0-.1l.4-1.59a.4.4,0,0,1,.48-.29.4.4,0,0,1,.29.49l-.39,1.59a.42.42,0,0,1-.39.3Zm0,0"/><path class="cls-2" d="M15.19,17.56a.39.39,0,0,1-.39-.4.38.38,0,0,1,0-.1l.39-1.58v0l.4-1.58a.41.41,0,0,1,.39-.3h1a1,1,0,0,1,1,1.24l-.1.39a1,1,0,0,1-1,.76h-1l-.32,1.29a.4.4,0,0,1-.39.3Zm.91-2.39h.8a.19.19,0,0,0,.19-.15l.1-.4a.19.19,0,0,0-.14-.24H16.3Zm0,0"/><path class="cls-2" d="M19.45,17.56h-.57a1.1,1.1,0,0,1-1.1-1.1,1.24,1.24,0,0,1,0-.27l.05-.21a1.07,1.07,0,0,1,1-.81h.56a1.11,1.11,0,0,1,1.11,1.1.84.84,0,0,1,0,.27l-.05.21a1.06,1.06,0,0,1-1,.81Zm-.87-1.18a.3.3,0,0,0,.23.37h.64a.27.27,0,0,0,.26-.2l.05-.21a.3.3,0,0,0-.23-.37h-.64a.26.26,0,0,0-.25.2Zm0,0"/><path class="cls-2" d="M20,17.56a.4.4,0,0,1-.4-.4.38.38,0,0,1,0-.1l.4-1.59a.4.4,0,0,1,.48-.29.41.41,0,0,1,.29.49l-.4,1.59a.4.4,0,0,1-.38.3Zm0,0"/><path class="cls-3" d="M12.81,17.16a.39.39,0,0,1-.33-.18l-.8-1.19a.4.4,0,0,1,.66-.44l.8,1.19a.4.4,0,0,1-.11.55.38.38,0,0,1-.22.07Zm0,0"/><path class="cls-3" d="M12,18.35a.39.39,0,0,1-.4-.39.4.4,0,0,1,.1-.26l2-2.39a.41.41,0,0,1,.56-.05.4.4,0,0,1,.06.56l-2,2.39a.41.41,0,0,1-.31.14Zm0,0"/><path class="cls-2" d="M21.56,17.56a.4.4,0,0,1-.4-.4.38.38,0,0,1,0-.1l.8-3.18a.4.4,0,1,1,.77.19l-.8,3.19a.4.4,0,0,1-.38.3Zm0,0"/><path class="cls-3" d="M17.23,2.33a2,2,0,0,0-1.51-.68H11.21a.4.4,0,0,0-.39.32L9.23,10.72a.41.41,0,0,0,.32.47H12a.41.41,0,0,0,.39-.3L13.12,8H14.4a3.16,3.16,0,0,0,3.11-2.7L17.71,4a2,2,0,0,0-.48-1.62Zm0,0"/></svg>